# xmcd
#
# Track frame offsets: 
#        150
#        16445
#        35267
#        63685
#        79410
#        96077
#        110912
#        121942
#        138170
#        152907
#        169932
#        187920
#        211440
#
# Disc length: 3111 seconds
#
# Revision: 16
# Processed by: cddbd v1.5.2PL0 Copyright (c) Steve Scherf et al.
# Submitted via: ExactAudioCopyFreeDBPlugin 1.0
#
DISCID=b50c250d
DTITLE=Bryan Adams - 18 Til I Die
DYEAR=1996
DGENRE=Rock
TTITLE0=The Only Thing That Looks Good On Me Is You
TTITLE1=Do To You
TTITLE2=Let's Make A Night To Remember
TTITLE3=18 Til I Die
TTITLE4=Star
TTITLE5=(I Wanna Be) Your Underwear
TTITLE6=We're Gonna Win
TTITLE7=I Think About You
TTITLE8=I'll Always Be Right There
TTITLE9=It Ain't A Party...If You Can't Come 'Round
TTITLE10=Black Pearl
TTITLE11=You're Still Beautiful To Me
TTITLE12=Have You Ever Really Loved A Woman
EXTD=
EXTT0=
EXTT1=
EXTT2=
EXTT3=
EXTT4=
EXTT5=
EXTT6=
EXTT7=
EXTT8=
EXTT9=
EXTT10=
EXTT11=
EXTT12=
PLAYORDER=
